<svg xmlns="http://www.w3.org/2000/svg" xmlns:xlink="http://www.w3.org/1999/xlink" width="500" zoomAndPan="magnify" viewBox="0 0 375 374.999991" height="500" preserveAspectRatio="xMidYMid meet" version="1.0"><defs><g/></defs><g fill="#000000" fill-opacity="1"><g transform="translate(-24.992325, 263.282783)"><g><path d="M 65.71875 -89.59375 L 65.71875 0 L 15.65625 0 L 15.65625 -182.28125 L 54.6875 -182.28125 L 127.859375 -89.59375 L 127.859375 -182.28125 L 177.921875 -182.28125 L 177.921875 0 L 138.125 0 Z M 65.71875 -89.59375 "/></g></g></g><g fill="#000000" fill-opacity="1"><g transform="translate(168.589114, 263.282783)"><g><path d="M 153.53125 0 L 153.53125 -96.015625 L 122.96875 -28.5 L 96.28125 -28.5 L 65.71875 -96.015625 L 65.71875 0 L 15.65625 0 L 15.65625 -182.28125 L 70.34375 -182.28125 L 109.625 -96.53125 L 149.15625 -182.28125 L 203.59375 -182.28125 L 203.59375 0 Z M 153.53125 0 "/></g></g></g><g fill="#ff2aad" fill-opacity="1"><g transform="translate(-12.862625, 263.282783)"><g><path d="M 65.71875 -89.59375 L 65.71875 0 L 15.65625 0 L 15.65625 -182.28125 L 54.6875 -182.28125 L 127.859375 -89.59375 L 127.859375 -182.28125 L 177.921875 -182.28125 L 177.921875 0 L 138.125 0 Z M 65.71875 -89.59375 "/></g></g></g><g fill="#ff2aad" fill-opacity="1"><g transform="translate(180.718814, 263.282783)"><g><path d="M 153.53125 0 L 153.53125 -96.015625 L 122.96875 -28.5 L 96.28125 -28.5 L 65.71875 -96.015625 L 65.71875 0 L 15.65625 0 L 15.65625 -182.28125 L 70.34375 -182.28125 L 109.625 -96.53125 L 149.15625 -182.28125 L 203.59375 -182.28125 L 203.59375 0 Z M 153.53125 0 "/></g></g></g><g fill="#000000" fill-opacity="1"><g transform="translate(85.184728, 329.011522)"><g><path d="M 10.015625 -55.015625 L 10.015625 -32.4375 C 10.015625 -32.070312 9.921875 -31.410156 9.734375 -30.453125 C 9.554688 -29.492188 9.050781 -28.65625 8.21875 -27.9375 C 9.050781 -27.257812 9.554688 -26.425781 9.734375 -25.4375 C 9.921875 -24.457031 10.015625 -23.789062 10.015625 -23.4375 L 10.015625 0 L 14.28125 0 L 14.28125 2.40625 L 9.234375 2.40625 C 8.816406 2.40625 8.414062 2.222656 8.03125 1.859375 C 7.644531 1.492188 7.453125 0.898438 7.453125 0.078125 L 7.453125 -23.046875 C 7.453125 -23.867188 7.269531 -24.679688 6.90625 -25.484375 C 6.539062 -26.285156 5.894531 -26.738281 4.96875 -26.84375 L 4.96875 -29.171875 C 5.6875 -29.171875 6.226562 -29.414062 6.59375 -29.90625 C 6.957031 -30.40625 7.191406 -30.953125 7.296875 -31.546875 C 7.398438 -32.140625 7.453125 -32.566406 7.453125 -32.828125 L 7.453125 -55.09375 C 7.453125 -56.125 7.695312 -56.769531 8.1875 -57.03125 C 8.675781 -57.289062 9.023438 -57.421875 9.234375 -57.421875 L 14.28125 -57.421875 L 14.28125 -55.015625 Z M 10.015625 -55.015625 "/></g></g></g><g fill="#000000" fill-opacity="1"><g transform="translate(103.650372, 329.011522)"><g><path d="M 7.453125 0 L 7.453125 -55.09375 L 25.453125 -55.09375 C 31.242188 -55.09375 36.050781 -53.863281 39.875 -51.40625 C 43.707031 -48.945312 46.59375 -45.632812 48.53125 -41.46875 C 50.46875 -37.3125 51.4375 -32.695312 51.4375 -27.625 C 51.4375 -22.039062 50.375 -17.175781 48.25 -13.03125 C 46.132812 -8.894531 43.125 -5.6875 39.21875 -3.40625 C 35.3125 -1.132812 30.722656 0 25.453125 0 Z M 48.734375 -27.625 C 48.734375 -32.4375 47.828125 -36.726562 46.015625 -40.5 C 44.203125 -44.28125 41.578125 -47.242188 38.140625 -49.390625 C 34.703125 -51.535156 30.472656 -52.609375 25.453125 -52.609375 L 10.171875 -52.609375 L 10.171875 -2.484375 L 25.453125 -2.484375 C 30.523438 -2.484375 34.789062 -3.582031 38.25 -5.78125 C 41.71875 -7.976562 44.332031 -10.988281 46.09375 -14.8125 C 47.851562 -18.644531 48.734375 -22.914062 48.734375 -27.625 Z M 48.734375 -27.625 "/></g></g></g><g fill="#000000" fill-opacity="1"><g transform="translate(158.892105, 329.011522)"><g><path d="M 43.84375 -2.484375 L 43.84375 0 L 7.453125 0 L 7.453125 -55.09375 L 43.140625 -55.09375 L 43.140625 -52.609375 L 10.171875 -52.609375 L 10.171875 -29.40625 L 39.03125 -29.40625 L 39.03125 -26.921875 L 10.171875 -26.921875 L 10.171875 -2.484375 Z M 43.84375 -2.484375 "/></g></g></g><g fill="#000000" fill-opacity="1"><g transform="translate(206.607926, 329.011522)"><g><path d="M 4.109375 -55.09375 L 26.296875 -3.34375 L 48.421875 -55.09375 L 51.296875 -55.09375 L 27.625 0 L 24.984375 0 L 1.3125 -55.09375 Z M 4.109375 -55.09375 "/></g></g></g><g fill="#000000" fill-opacity="1"><g transform="translate(259.211707, 329.011522)"><g><path d="M 4.1875 -55.015625 L 4.1875 -57.421875 L 9.234375 -57.421875 C 9.441406 -57.421875 9.789062 -57.289062 10.28125 -57.03125 C 10.769531 -56.769531 11.015625 -56.125 11.015625 -55.09375 L 11.015625 -32.828125 C 11.015625 -32.566406 11.066406 -32.140625 11.171875 -31.546875 C 11.273438 -30.953125 11.507812 -30.40625 11.875 -29.90625 C 12.238281 -29.414062 12.78125 -29.171875 13.5 -29.171875 L 13.5 -26.84375 C 12.570312 -26.738281 11.925781 -26.285156 11.5625 -25.484375 C 11.195312 -24.679688 11.015625 -23.867188 11.015625 -23.046875 L 11.015625 0.078125 C 11.015625 0.898438 10.804688 1.492188 10.390625 1.859375 C 9.984375 2.222656 9.597656 2.40625 9.234375 2.40625 L 4.1875 2.40625 L 4.1875 0 L 8.453125 0 L 8.453125 -23.4375 C 8.453125 -23.789062 8.539062 -24.457031 8.71875 -25.4375 C 8.90625 -26.425781 9.414062 -27.257812 10.25 -27.9375 C 9.414062 -28.65625 8.90625 -29.492188 8.71875 -30.453125 C 8.539062 -31.410156 8.453125 -32.070312 8.453125 -32.4375 L 8.453125 -55.015625 Z M 4.1875 -55.015625 "/></g></g></g></svg>