<svg xmlns="http://www.w3.org/2000/svg" xmlns:xlink="http://www.w3.org/1999/xlink" width="500" zoomAndPan="magnify" viewBox="0 0 375 374.999991" height="500" preserveAspectRatio="xMidYMid meet" version="1.0"><defs><clipPath id="e62f9ce21a"><path d="M 28.335938 32.066406 L 346.335938 32.066406 L 346.335938 342.566406 L 28.335938 342.566406 Z M 28.335938 32.066406 " clip-rule="nonzero"/></clipPath></defs><g clip-path="url(#e62f9ce21a)"><path fill="#161614" d="M 187.339844 32.070312 C 99.535156 32.070312 28.335938 103.246094 28.335938 191.042969 C 28.335938 261.285156 73.894531 320.875 137.070312 341.894531 C 145.019531 343.367188 147.9375 338.445312 147.9375 334.246094 C 147.9375 330.457031 147.789062 317.933594 147.71875 304.648438 C 103.484375 314.265625 94.152344 285.890625 94.152344 285.890625 C 86.917969 267.515625 76.496094 262.632812 76.496094 262.632812 C 62.070312 252.765625 77.585938 252.96875 77.585938 252.96875 C 93.550781 254.089844 101.957031 269.347656 101.957031 269.347656 C 116.140625 293.652344 139.15625 286.625 148.226562 282.566406 C 149.65625 272.289062 153.777344 265.277344 158.324219 261.308594 C 123.007812 257.289062 85.882812 243.65625 85.882812 182.742188 C 85.882812 165.386719 92.09375 151.203125 102.265625 140.070312 C 100.613281 136.066406 95.171875 119.898438 103.804688 98 C 103.804688 98 117.15625 93.726562 147.539062 114.296875 C 160.222656 110.773438 173.824219 109.007812 187.339844 108.945312 C 200.851562 109.007812 214.464844 110.773438 227.171875 114.296875 C 257.519531 93.726562 270.851562 98 270.851562 98 C 279.507812 119.898438 274.0625 136.066406 272.410156 140.070312 C 282.605469 151.203125 288.773438 165.386719 288.773438 182.742188 C 288.773438 243.800781 251.578125 257.246094 216.171875 261.179688 C 221.875 266.113281 226.957031 275.789062 226.957031 290.621094 C 226.957031 311.890625 226.773438 329.011719 226.773438 334.246094 C 226.773438 338.476562 229.636719 343.433594 237.695312 341.875 C 300.835938 320.828125 346.335938 261.257812 346.335938 191.042969 C 346.335938 103.246094 275.148438 32.070312 187.339844 32.070312 Z M 87.886719 258.53125 C 87.539062 259.320312 86.296875 259.558594 85.164062 259.015625 C 84.011719 258.5 83.363281 257.421875 83.734375 256.628906 C 84.078125 255.816406 85.324219 255.589844 86.472656 256.132812 C 87.628906 256.652344 88.289062 257.738281 87.886719 258.53125 Z M 95.710938 265.507812 C 94.949219 266.210938 93.46875 265.886719 92.460938 264.773438 C 91.421875 263.667969 91.226562 262.183594 91.996094 261.472656 C 92.777344 260.769531 94.214844 261.097656 95.257812 262.207031 C 96.300781 263.328125 96.5 264.800781 95.710938 265.507812 Z M 101.074219 274.4375 C 100.101562 275.113281 98.507812 274.480469 97.523438 273.066406 C 96.546875 271.652344 96.546875 269.957031 97.542969 269.277344 C 98.53125 268.597656 100.101562 269.207031 101.097656 270.613281 C 102.070312 272.050781 102.070312 273.746094 101.074219 274.4375 Z M 110.148438 284.777344 C 109.277344 285.738281 107.421875 285.480469 106.0625 284.167969 C 104.671875 282.886719 104.285156 281.066406 105.160156 280.105469 C 106.042969 279.144531 107.910156 279.414062 109.277344 280.714844 C 110.65625 281.992188 111.078125 283.824219 110.148438 284.777344 Z M 121.875 288.265625 C 121.492188 289.511719 119.703125 290.078125 117.902344 289.546875 C 116.105469 289.003906 114.929688 287.546875 115.292969 286.285156 C 115.664062 285.035156 117.460938 284.445312 119.277344 285.011719 C 121.070312 285.550781 122.25 287 121.875 288.265625 Z M 135.222656 289.746094 C 135.269531 291.058594 133.742188 292.144531 131.851562 292.167969 C 129.949219 292.210938 128.410156 291.152344 128.390625 289.859375 C 128.390625 288.535156 129.882812 287.460938 131.785156 287.429688 C 133.675781 287.390625 135.222656 288.445312 135.222656 289.746094 Z M 148.335938 289.246094 C 148.5625 290.523438 147.246094 291.835938 145.371094 292.1875 C 143.523438 292.523438 141.816406 291.734375 141.582031 290.464844 C 141.351562 289.15625 142.691406 287.839844 144.53125 287.503906 C 146.414062 287.175781 148.09375 287.945312 148.335938 289.246094 Z M 148.335938 289.246094 " fill-opacity="1" fill-rule="nonzero"/></g></svg>