<svg xmlns="http://www.w3.org/2000/svg" xmlns:xlink="http://www.w3.org/1999/xlink" width="500" zoomAndPan="magnify" viewBox="0 0 375 374.999991" height="500" preserveAspectRatio="xMidYMid meet" version="1.0"><path fill="#61dafb" d="M 295.152344 186.992188 C 295.152344 172.710938 277.277344 159.175781 249.875 150.78125 C 256.199219 122.835938 253.386719 100.601562 241.003906 93.480469 C 238.148438 91.8125 234.808594 91.019531 231.164062 91.019531 L 231.164062 100.820312 C 233.183594 100.820312 234.808594 101.214844 236.171875 101.964844 C 242.144531 105.390625 244.734375 118.441406 242.714844 135.226562 C 242.230469 139.359375 241.441406 143.707031 240.476562 148.144531 C 231.867188 146.035156 222.46875 144.410156 212.585938 143.355469 C 206.660156 135.226562 200.507812 127.84375 194.316406 121.386719 C 208.632812 108.070312 222.074219 100.777344 231.207031 100.777344 L 231.207031 90.976562 C 219.132812 90.976562 203.320312 99.589844 187.335938 114.53125 C 171.347656 99.679688 155.539062 91.152344 143.460938 91.152344 L 143.460938 100.953125 C 152.550781 100.953125 166.035156 108.203125 180.351562 121.429688 C 174.203125 127.890625 168.054688 135.226562 162.210938 143.355469 C 152.289062 144.410156 142.886719 146.035156 134.28125 148.191406 C 133.269531 143.796875 132.523438 139.535156 131.996094 135.445312 C 129.933594 118.660156 132.480469 105.609375 138.410156 102.140625 C 139.726562 101.347656 141.4375 100.996094 143.460938 100.996094 L 143.460938 91.195312 C 139.769531 91.195312 136.433594 91.988281 133.535156 93.65625 C 121.191406 100.777344 118.425781 122.96875 124.792969 150.828125 C 97.476562 159.261719 79.691406 172.753906 79.691406 186.992188 C 79.691406 201.273438 97.566406 214.804688 124.96875 223.199219 C 118.644531 251.148438 121.457031 273.382812 133.839844 280.5 C 136.695312 282.167969 140.035156 282.960938 143.722656 282.960938 C 155.800781 282.960938 171.609375 274.347656 187.597656 259.40625 C 203.585938 274.261719 219.394531 282.785156 231.472656 282.785156 C 235.160156 282.785156 238.5 281.992188 241.398438 280.324219 C 253.738281 273.207031 256.503906 251.015625 250.136719 223.15625 C 277.367188 214.761719 295.152344 201.226562 295.152344 186.992188 Z M 237.972656 157.683594 C 236.347656 163.351562 234.328125 169.195312 232.042969 175.039062 C 230.242188 171.523438 228.355469 168.007812 226.289062 164.492188 C 224.269531 160.976562 222.117188 157.550781 219.964844 154.210938 C 226.203125 155.132812 232.21875 156.277344 237.972656 157.683594 Z M 217.859375 204.480469 C 214.433594 210.414062 210.917969 216.035156 207.273438 221.265625 C 200.730469 221.835938 194.097656 222.144531 187.421875 222.144531 C 180.789062 222.144531 174.160156 221.835938 167.660156 221.308594 C 164.011719 216.082031 160.457031 210.5 157.03125 204.613281 C 153.691406 198.855469 150.664062 193.011719 147.894531 187.121094 C 150.617188 181.234375 153.691406 175.347656 156.988281 169.589844 C 160.410156 163.65625 163.925781 158.035156 167.570312 152.804688 C 174.113281 152.234375 180.746094 151.925781 187.421875 151.925781 C 194.054688 151.925781 200.683594 152.234375 207.183594 152.761719 C 210.832031 157.988281 214.386719 163.570312 217.8125 169.457031 C 221.152344 175.214844 224.183594 181.058594 226.949219 186.945312 C 224.183594 192.835938 221.152344 198.722656 217.859375 204.480469 Z M 232.042969 198.769531 C 234.414062 204.65625 236.433594 210.542969 238.105469 216.257812 C 232.351562 217.664062 226.289062 218.847656 220.007812 219.773438 C 222.160156 216.386719 224.3125 212.917969 226.332031 209.359375 C 228.355469 205.84375 230.242188 202.28125 232.042969 198.769531 Z M 187.511719 245.652344 C 183.425781 241.433594 179.339844 236.734375 175.300781 231.59375 C 179.253906 231.769531 183.292969 231.898438 187.378906 231.898438 C 191.507812 231.898438 195.589844 231.8125 199.585938 231.59375 C 195.632812 236.734375 191.550781 241.433594 187.511719 245.652344 Z M 154.835938 219.773438 C 148.597656 218.847656 142.582031 217.707031 136.828125 216.300781 C 138.453125 210.632812 140.472656 204.789062 142.757812 198.945312 C 144.558594 202.457031 146.445312 205.972656 148.511719 209.488281 C 150.574219 213.003906 152.683594 216.433594 154.835938 219.773438 Z M 187.289062 128.328125 C 191.375 132.546875 195.460938 137.25 199.5 142.390625 C 195.546875 142.214844 191.507812 142.082031 187.421875 142.082031 C 183.292969 142.082031 179.210938 142.171875 175.210938 142.390625 C 179.164062 137.25 183.25 132.546875 187.289062 128.328125 Z M 154.789062 154.210938 C 152.636719 157.59375 150.488281 161.066406 148.464844 164.625 C 146.445312 168.140625 144.558594 171.65625 142.757812 175.171875 C 140.386719 169.28125 138.363281 163.394531 136.695312 157.683594 C 142.449219 156.320312 148.511719 155.132812 154.789062 154.210938 Z M 115.042969 209.226562 C 99.496094 202.589844 89.441406 193.890625 89.441406 186.992188 C 89.441406 180.09375 99.496094 171.347656 115.042969 164.757812 C 118.820312 163.128906 122.949219 161.679688 127.210938 160.316406 C 129.714844 168.929688 133.007812 177.894531 137.089844 187.078125 C 133.050781 196.21875 129.800781 205.140625 127.339844 213.707031 C 122.992188 212.347656 118.863281 210.851562 115.042969 209.226562 Z M 138.671875 272.019531 C 132.699219 268.589844 130.109375 255.539062 132.128906 238.753906 C 132.613281 234.625 133.402344 230.273438 134.367188 225.835938 C 142.976562 227.945312 152.375 229.570312 162.257812 230.625 C 168.1875 238.753906 174.335938 246.136719 180.527344 252.597656 C 166.210938 265.910156 152.769531 273.207031 143.636719 273.207031 C 141.660156 273.160156 139.988281 272.765625 138.671875 272.019531 Z M 242.847656 238.535156 C 244.910156 255.320312 242.363281 268.371094 236.433594 271.84375 C 235.117188 272.632812 233.40625 272.984375 231.382812 272.984375 C 222.292969 272.984375 208.808594 265.734375 194.492188 252.507812 C 200.640625 246.050781 206.789062 238.710938 212.632812 230.582031 C 222.558594 229.527344 231.957031 227.902344 240.5625 225.75 C 241.574219 230.1875 242.363281 234.449219 242.847656 238.535156 Z M 259.753906 209.226562 C 255.980469 210.851562 251.851562 212.300781 247.589844 213.664062 C 245.085938 205.050781 241.792969 196.085938 237.707031 186.902344 C 241.75 177.761719 245 168.84375 247.457031 160.273438 C 251.804688 161.636719 255.933594 163.128906 259.800781 164.757812 C 275.347656 171.390625 285.402344 180.09375 285.402344 186.992188 C 285.359375 193.890625 275.304688 202.632812 259.753906 209.226562 Z M 259.753906 209.226562 " fill-opacity="1" fill-rule="nonzero"/><path fill="#61dafb" d="M 207.449219 186.992188 C 207.449219 187.648438 207.417969 188.304688 207.351562 188.960938 C 207.289062 189.613281 207.191406 190.265625 207.0625 190.910156 C 206.933594 191.554688 206.773438 192.191406 206.585938 192.820312 C 206.394531 193.449219 206.171875 194.070312 205.921875 194.675781 C 205.667969 195.285156 205.390625 195.878906 205.078125 196.457031 C 204.769531 197.039062 204.429688 197.601562 204.066406 198.148438 C 203.699219 198.695312 203.308594 199.222656 202.894531 199.730469 C 202.476562 200.238281 202.035156 200.726562 201.570312 201.191406 C 201.105469 201.65625 200.617188 202.097656 200.109375 202.515625 C 199.601562 202.929688 199.074219 203.324219 198.527344 203.6875 C 197.980469 204.054688 197.417969 204.390625 196.839844 204.703125 C 196.257812 205.011719 195.667969 205.292969 195.058594 205.542969 C 194.453125 205.796875 193.832031 206.015625 193.203125 206.207031 C 192.574219 206.398438 191.9375 206.558594 191.292969 206.6875 C 190.648438 206.816406 190 206.910156 189.34375 206.976562 C 188.691406 207.039062 188.035156 207.074219 187.378906 207.074219 C 186.71875 207.074219 186.066406 207.039062 185.410156 206.976562 C 184.757812 206.910156 184.105469 206.816406 183.460938 206.6875 C 182.816406 206.558594 182.179688 206.398438 181.550781 206.207031 C 180.921875 206.015625 180.304688 205.796875 179.695312 205.542969 C 179.089844 205.292969 178.496094 205.011719 177.917969 204.703125 C 177.335938 204.390625 176.773438 204.054688 176.226562 203.6875 C 175.679688 203.324219 175.152344 202.929688 174.644531 202.515625 C 174.136719 202.097656 173.652344 201.65625 173.1875 201.191406 C 172.722656 200.726562 172.28125 200.238281 171.863281 199.730469 C 171.445312 199.222656 171.054688 198.695312 170.691406 198.148438 C 170.324219 197.601562 169.988281 197.039062 169.675781 196.457031 C 169.367188 195.878906 169.085938 195.285156 168.835938 194.675781 C 168.582031 194.070312 168.363281 193.449219 168.171875 192.820312 C 167.980469 192.191406 167.820312 191.554688 167.691406 190.910156 C 167.566406 190.265625 167.46875 189.613281 167.402344 188.960938 C 167.339844 188.304688 167.308594 187.648438 167.308594 186.992188 C 167.308594 186.332031 167.339844 185.675781 167.402344 185.023438 C 167.46875 184.367188 167.566406 183.71875 167.691406 183.074219 C 167.820312 182.429688 167.980469 181.792969 168.171875 181.160156 C 168.363281 180.53125 168.582031 179.914062 168.835938 179.304688 C 169.085938 178.699219 169.367188 178.105469 169.675781 177.523438 C 169.988281 176.945312 170.324219 176.382812 170.691406 175.835938 C 171.054688 175.289062 171.445312 174.761719 171.863281 174.25 C 172.28125 173.742188 172.722656 173.257812 173.1875 172.792969 C 173.652344 172.328125 174.136719 171.886719 174.644531 171.46875 C 175.152344 171.050781 175.679688 170.660156 176.226562 170.292969 C 176.773438 169.929688 177.335938 169.589844 177.917969 169.28125 C 178.496094 168.972656 179.089844 168.691406 179.695312 168.4375 C 180.304688 168.1875 180.921875 167.964844 181.550781 167.773438 C 182.179688 167.582031 182.816406 167.421875 183.460938 167.296875 C 184.105469 167.167969 184.757812 167.070312 185.410156 167.007812 C 186.066406 166.941406 186.71875 166.910156 187.378906 166.910156 C 188.035156 166.910156 188.691406 166.941406 189.34375 167.007812 C 190 167.070312 190.648438 167.167969 191.292969 167.296875 C 191.9375 167.421875 192.574219 167.582031 193.203125 167.773438 C 193.832031 167.964844 194.453125 168.1875 195.058594 168.4375 C 195.667969 168.691406 196.257812 168.972656 196.839844 169.28125 C 197.417969 169.589844 197.980469 169.929688 198.527344 170.292969 C 199.074219 170.660156 199.601562 171.050781 200.109375 171.46875 C 200.617188 171.886719 201.105469 172.328125 201.570312 172.792969 C 202.035156 173.257812 202.476562 173.742188 202.894531 174.25 C 203.308594 174.761719 203.699219 175.289062 204.066406 175.835938 C 204.429688 176.382812 204.769531 176.945312 205.078125 177.523438 C 205.390625 178.105469 205.667969 178.699219 205.921875 179.304688 C 206.171875 179.914062 206.394531 180.53125 206.585938 181.160156 C 206.773438 181.792969 206.933594 182.429688 207.0625 183.074219 C 207.191406 183.71875 207.289062 184.367188 207.351562 185.023438 C 207.417969 185.675781 207.449219 186.332031 207.449219 186.992188 Z M 207.449219 186.992188 " fill-opacity="1" fill-rule="nonzero"/></svg>