<svg xmlns="http://www.w3.org/2000/svg" xmlns:xlink="http://www.w3.org/1999/xlink" width="500" zoomAndPan="magnify" viewBox="0 0 375 374.999991" height="500" preserveAspectRatio="xMidYMid meet" version="1.0"><path fill="#1abcfe" d="M 187.347656 187.644531 C 187.347656 159.289062 210.28125 136.300781 238.570312 136.300781 C 266.859375 136.300781 289.792969 159.289062 289.792969 187.644531 C 289.792969 216.003906 266.859375 238.992188 238.570312 238.992188 C 210.28125 238.992188 187.347656 216.003906 187.347656 187.644531 Z M 187.347656 187.644531 " fill-opacity="1" fill-rule="nonzero"/><path fill="#0acf83" d="M 84.902344 290.339844 C 84.902344 261.980469 107.835938 238.992188 136.125 238.992188 L 187.347656 238.992188 L 187.347656 290.339844 C 187.347656 318.699219 164.414062 341.6875 136.125 341.6875 C 107.835938 341.6875 84.902344 318.699219 84.902344 290.339844 Z M 84.902344 290.339844 " fill-opacity="1" fill-rule="nonzero"/><path fill="#ff7262" d="M 187.347656 33.605469 L 187.347656 136.300781 L 238.570312 136.300781 C 266.859375 136.300781 289.792969 113.308594 289.792969 84.953125 C 289.792969 56.59375 266.859375 33.605469 238.570312 33.605469 Z M 187.347656 33.605469 " fill-opacity="1" fill-rule="nonzero"/><path fill="#f24e1e" d="M 84.902344 84.953125 C 84.902344 113.308594 107.835938 136.300781 136.125 136.300781 L 187.347656 136.300781 L 187.347656 33.605469 L 136.125 33.605469 C 107.835938 33.605469 84.902344 56.59375 84.902344 84.953125 Z M 84.902344 84.953125 " fill-opacity="1" fill-rule="nonzero"/><path fill="#a259ff" d="M 84.902344 187.644531 C 84.902344 216.003906 107.835938 238.992188 136.125 238.992188 L 187.347656 238.992188 L 187.347656 136.300781 L 136.125 136.300781 C 107.835938 136.300781 84.902344 159.289062 84.902344 187.644531 Z M 84.902344 187.644531 " fill-opacity="1" fill-rule="nonzero"/></svg>