<svg xmlns="http://www.w3.org/2000/svg" xmlns:xlink="http://www.w3.org/1999/xlink" width="500" zoomAndPan="magnify" viewBox="0 0 375 374.999991" height="500" preserveAspectRatio="xMidYMid meet" version="1.0"><defs><g/></defs><rect x="-37.5" width="450" fill="#ffffff" y="-37.499999" height="449.999989" fill-opacity="1"/><rect x="-37.5" width="450" fill="#ffffff" y="-37.499999" height="449.999989" fill-opacity="1"/><g fill="#000000" fill-opacity="1"><g transform="translate(81.086426, 231.616377)"><g><path d="M 33.875 -46.1875 L 33.875 0 L 8.078125 0 L 8.078125 -93.96875 L 28.1875 -93.96875 L 65.90625 -46.1875 L 65.90625 -93.96875 L 91.71875 -93.96875 L 91.71875 0 L 71.203125 0 Z M 33.875 -46.1875 "/></g></g></g><g fill="#000000" fill-opacity="1"><g transform="translate(180.87785, 231.616377)"><g><path d="M 79.140625 0 L 79.140625 -49.5 L 63.390625 -14.6875 L 49.625 -14.6875 L 33.875 -49.5 L 33.875 0 L 8.078125 0 L 8.078125 -93.96875 L 36.265625 -93.96875 L 56.515625 -49.765625 L 76.890625 -93.96875 L 104.953125 -93.96875 L 104.953125 0 Z M 79.140625 0 "/></g></g></g><g fill="#ff2aad" fill-opacity="1"><g transform="translate(87.339301, 231.616377)"><g><path d="M 33.875 -46.1875 L 33.875 0 L 8.078125 0 L 8.078125 -93.96875 L 28.1875 -93.96875 L 65.90625 -46.1875 L 65.90625 -93.96875 L 91.71875 -93.96875 L 91.71875 0 L 71.203125 0 Z M 33.875 -46.1875 "/></g></g></g><g fill="#ff2aad" fill-opacity="1"><g transform="translate(187.130726, 231.616377)"><g><path d="M 79.140625 0 L 79.140625 -49.5 L 63.390625 -14.6875 L 49.625 -14.6875 L 33.875 -49.5 L 33.875 0 L 8.078125 0 L 8.078125 -93.96875 L 36.265625 -93.96875 L 56.515625 -49.765625 L 76.890625 -93.96875 L 104.953125 -93.96875 L 104.953125 0 Z M 79.140625 0 "/></g></g></g><g fill="#000000" fill-opacity="1"><g transform="translate(137.882808, 265.499587)"><g><path d="M 5.15625 -28.359375 L 5.15625 -16.71875 C 5.15625 -16.53125 5.109375 -16.1875 5.015625 -15.6875 C 4.921875 -15.195312 4.660156 -14.769531 4.234375 -14.40625 C 4.660156 -14.050781 4.921875 -13.617188 5.015625 -13.109375 C 5.109375 -12.609375 5.15625 -12.265625 5.15625 -12.078125 L 5.15625 0 L 7.359375 0 L 7.359375 1.234375 L 4.765625 1.234375 C 4.546875 1.234375 4.335938 1.140625 4.140625 0.953125 C 3.941406 0.773438 3.84375 0.472656 3.84375 0.046875 L 3.84375 -11.875 C 3.84375 -12.300781 3.75 -12.722656 3.5625 -13.140625 C 3.375 -13.554688 3.039062 -13.789062 2.5625 -13.84375 L 2.5625 -15.046875 C 2.9375 -15.046875 3.21875 -15.171875 3.40625 -15.421875 C 3.59375 -15.671875 3.710938 -15.945312 3.765625 -16.25 C 3.816406 -16.5625 3.84375 -16.785156 3.84375 -16.921875 L 3.84375 -28.40625 C 3.84375 -28.9375 3.96875 -29.265625 4.21875 -29.390625 C 4.46875 -29.523438 4.648438 -29.59375 4.765625 -29.59375 L 7.359375 -29.59375 L 7.359375 -28.359375 Z M 5.15625 -28.359375 "/></g></g></g><g fill="#000000" fill-opacity="1"><g transform="translate(147.401866, 265.499587)"><g><path d="M 3.84375 0 L 3.84375 -28.40625 L 13.125 -28.40625 C 16.101562 -28.40625 18.578125 -27.769531 20.546875 -26.5 C 22.523438 -25.226562 24.015625 -23.519531 25.015625 -21.375 C 26.015625 -19.226562 26.515625 -16.847656 26.515625 -14.234375 C 26.515625 -11.359375 25.96875 -8.851562 24.875 -6.71875 C 23.78125 -4.582031 22.226562 -2.925781 20.21875 -1.75 C 18.207031 -0.582031 15.84375 0 13.125 0 Z M 25.125 -14.234375 C 25.125 -16.710938 24.65625 -18.925781 23.71875 -20.875 C 22.78125 -22.820312 21.425781 -24.347656 19.65625 -25.453125 C 17.882812 -26.566406 15.707031 -27.125 13.125 -27.125 L 5.234375 -27.125 L 5.234375 -1.28125 L 13.125 -1.28125 C 15.738281 -1.28125 17.9375 -1.847656 19.71875 -2.984375 C 21.507812 -4.117188 22.859375 -5.671875 23.765625 -7.640625 C 24.671875 -9.609375 25.125 -11.804688 25.125 -14.234375 Z M 25.125 -14.234375 "/></g></g></g><g fill="#000000" fill-opacity="1"><g transform="translate(175.879033, 265.499587)"><g><path d="M 22.59375 -1.28125 L 22.59375 0 L 3.84375 0 L 3.84375 -28.40625 L 22.234375 -28.40625 L 22.234375 -27.125 L 5.234375 -27.125 L 5.234375 -15.15625 L 20.125 -15.15625 L 20.125 -13.875 L 5.234375 -13.875 L 5.234375 -1.28125 Z M 22.59375 -1.28125 "/></g></g></g><g fill="#000000" fill-opacity="1"><g transform="translate(200.476585, 265.499587)"><g><path d="M 2.125 -28.40625 L 13.5625 -1.71875 L 24.953125 -28.40625 L 26.4375 -28.40625 L 14.234375 0 L 12.875 0 L 0.6875 -28.40625 Z M 2.125 -28.40625 "/></g></g></g><g fill="#000000" fill-opacity="1"><g transform="translate(227.593886, 265.499587)"><g><path d="M 2.15625 -28.359375 L 2.15625 -29.59375 L 4.765625 -29.59375 C 4.867188 -29.59375 5.046875 -29.523438 5.296875 -29.390625 C 5.554688 -29.265625 5.6875 -28.9375 5.6875 -28.40625 L 5.6875 -16.921875 C 5.6875 -16.785156 5.710938 -16.5625 5.765625 -16.25 C 5.816406 -15.945312 5.9375 -15.671875 6.125 -15.421875 C 6.3125 -15.171875 6.585938 -15.046875 6.953125 -15.046875 L 6.953125 -13.84375 C 6.472656 -13.789062 6.140625 -13.554688 5.953125 -13.140625 C 5.773438 -12.722656 5.6875 -12.300781 5.6875 -11.875 L 5.6875 0.046875 C 5.6875 0.472656 5.578125 0.773438 5.359375 0.953125 C 5.148438 1.140625 4.953125 1.234375 4.765625 1.234375 L 2.15625 1.234375 L 2.15625 0 L 4.359375 0 L 4.359375 -12.078125 C 4.359375 -12.265625 4.40625 -12.609375 4.5 -13.109375 C 4.59375 -13.617188 4.851562 -14.050781 5.28125 -14.40625 C 4.851562 -14.769531 4.59375 -15.195312 4.5 -15.6875 C 4.40625 -16.1875 4.359375 -16.53125 4.359375 -16.71875 L 4.359375 -28.359375 Z M 2.15625 -28.359375 "/></g></g></g></svg>